<svg xmlns="http://www.w3.org/2000/svg" width="1400" height="1040" viewBox="0 0 1400 1040">
<rect width="1400" height="1040" fill="#faf8f3"/>
<text x="65" y="53" font-family="Arial, sans-serif" font-size="30" fill="#23352f" text-anchor="start" font-weight="700">LATUR FAMILY HOME</text>
<text x="65" y="83" font-family="Arial, sans-serif" font-size="18" fill="#23352f" text-anchor="start" font-weight="400">55 ft road frontage × 80 ft plot depth  |  Ground + one upper floor  |  ₹45 lakh budget target</text>
<text x="65" y="113" font-family="Arial, sans-serif" font-size="15" fill="#826444" text-anchor="start" font-weight="400">CONCEPT STUDY — north unknown; site placement and setbacks not assigned</text>
<text x="100" y="161" font-family="Arial, sans-serif" font-size="22" fill="#23352f" text-anchor="start" font-weight="700">GROUND FLOOR</text>
<text x="100" y="188" font-family="Arial, sans-serif" font-size="16" fill="#23352f" text-anchor="start" font-weight="400">≈960 sq ft covered footprint</text>
<rect x="100" y="235" width="204" height="204" fill="#e5eddf"/>
<text x="202.0" y="334.0" font-family="Arial, sans-serif" font-size="15" fill="#23352f" text-anchor="middle" font-weight="700">PARENTS</text>
<text x="202.0" y="355.0" font-family="Arial, sans-serif" font-size="13" fill="#23352f" text-anchor="middle" font-weight="400">12 × 12 ft zone</text>
<rect x="406" y="235" width="204" height="204" fill="#e5eddf"/>
<text x="508.0" y="334.0" font-family="Arial, sans-serif" font-size="15" fill="#23352f" text-anchor="middle" font-weight="700">EXTRA BEDROOM</text>
<text x="508.0" y="355.0" font-family="Arial, sans-serif" font-size="13" fill="#23352f" text-anchor="middle" font-weight="400">12 × 12 ft zone</text>
<rect x="304" y="235" width="102" height="102" fill="#e1edf0"/>
<text x="355.0" y="283.0" font-family="Arial, sans-serif" font-size="15" fill="#23352f" text-anchor="middle" font-weight="700">ATT. BATH</text>
<text x="355.0" y="304.0" font-family="Arial, sans-serif" font-size="13" fill="#23352f" text-anchor="middle" font-weight="400">6 × 6 zone</text>
<rect x="304" y="337" width="102" height="102" fill="#e1edf0"/>
<text x="355.0" y="385.0" font-family="Arial, sans-serif" font-size="15" fill="#23352f" text-anchor="middle" font-weight="700">BATH</text>
<text x="355.0" y="406.0" font-family="Arial, sans-serif" font-size="13" fill="#23352f" text-anchor="middle" font-weight="400">6 × 6 zone</text>
<rect x="100" y="439" width="510" height="68" fill="#f4f0e8"/>
<text x="355.0" y="470.0" font-family="Arial, sans-serif" font-size="15" fill="#23352f" text-anchor="middle" font-weight="700">SHARED PASSAGE</text>
<rect x="100" y="507" width="170" height="170" fill="#f3e5ce"/>
<text x="185.0" y="589.0" font-family="Arial, sans-serif" font-size="15" fill="#23352f" text-anchor="middle" font-weight="700">KITCHEN</text>
<text x="185.0" y="610.0" font-family="Arial, sans-serif" font-size="13" fill="#23352f" text-anchor="middle" font-weight="400">10 × 10 ft zone</text>
<rect x="100" y="677" width="85" height="102" fill="#f3e5ce"/>
<text x="142.5" y="725.0" font-family="Arial, sans-serif" font-size="15" fill="#23352f" text-anchor="middle" font-weight="700">STORE</text>
<text x="142.5" y="746.0" font-family="Arial, sans-serif" font-size="13" fill="#23352f" text-anchor="middle" font-weight="400">5 × 6 zone</text>
<rect x="185" y="677" width="85" height="102" fill="#e1edf0"/>
<text x="227.5" y="725.0" font-family="Arial, sans-serif" font-size="15" fill="#23352f" text-anchor="middle" font-weight="700">UTILITY</text>
<text x="227.5" y="746.0" font-family="Arial, sans-serif" font-size="13" fill="#23352f" text-anchor="middle" font-weight="400">5 × 6 zone</text>
<rect x="270" y="507" width="204" height="272" fill="#f3e5ce"/>
<text x="372.0" y="640.0" font-family="Arial, sans-serif" font-size="15" fill="#23352f" text-anchor="middle" font-weight="700">LIVING / DINING</text>
<text x="372.0" y="661.0" font-family="Arial, sans-serif" font-size="13" fill="#23352f" text-anchor="middle" font-weight="400">12 × 16 ft zone</text>
<rect x="474" y="507" width="136" height="272" fill="#e9e8e3"/>
<text x="542.0" y="640.0" font-family="Arial, sans-serif" font-size="15" fill="#23352f" text-anchor="middle" font-weight="700"></text>
<path d="M100,235 L610,235" fill="none" stroke="#354740" stroke-width="3"/>
<path d="M610,235 L610,779" fill="none" stroke="#354740" stroke-width="3"/>
<path d="M610,779 L100,779" fill="none" stroke="#354740" stroke-width="3"/>
<path d="M100,779 L100,235" fill="none" stroke="#354740" stroke-width="3"/>
<path d="M304,235 L304,439" fill="none" stroke="#354740" stroke-width="3"/>
<path d="M406,235 L406,439" fill="none" stroke="#354740" stroke-width="3"/>
<path d="M304,337 L406,337" fill="none" stroke="#354740" stroke-width="3"/>
<path d="M100,439 L610,439" fill="none" stroke="#354740" stroke-width="3"/>
<path d="M100,507 L474,507" fill="none" stroke="#354740" stroke-width="3"/>
<path d="M474,507 L474,779" fill="none" stroke="#354740" stroke-width="3"/>
<path d="M270,507 L270,779" fill="none" stroke="#354740" stroke-width="3"/>
<path d="M100,677 L270,677" fill="none" stroke="#354740" stroke-width="3"/>
<path d="M185,677 L185,779" fill="none" stroke="#354740" stroke-width="3"/>
<path d="M202,507 L247.9,507" fill="none" stroke="#faf8f3" stroke-width="6"/>
<path d="M202,507 L202,461.1" fill="none" stroke="#63756a" stroke-width="1.5"/>
<path d="M202,461.1 A45.900000000000006,45.900000000000006 0 0 1 247.9,507" fill="none" stroke="#63756a" stroke-width="1.2"/>
<path d="M117,677 L162.9,677" fill="none" stroke="#faf8f3" stroke-width="6"/>
<path d="M117,677 L117,631.1" fill="none" stroke="#63756a" stroke-width="1.5"/>
<path d="M117,631.1 A45.900000000000006,45.900000000000006 0 0 1 162.9,677" fill="none" stroke="#63756a" stroke-width="1.2"/>
<path d="M202,677 L247.9,677" fill="none" stroke="#faf8f3" stroke-width="6"/>
<path d="M202,677 L202,631.1" fill="none" stroke="#63756a" stroke-width="1.5"/>
<path d="M202,631.1 A45.900000000000006,45.900000000000006 0 0 1 247.9,677" fill="none" stroke="#63756a" stroke-width="1.2"/>
<path d="M355,507 L400.9,507" fill="none" stroke="#faf8f3" stroke-width="6"/>
<path d="M355,507 L355,461.1" fill="none" stroke="#63756a" stroke-width="1.5"/>
<path d="M355,461.1 A45.900000000000006,45.900000000000006 0 0 1 400.9,507" fill="none" stroke="#63756a" stroke-width="1.2"/>
<path d="M355,779 L400.9,779" fill="none" stroke="#faf8f3" stroke-width="6"/>
<path d="M355,779 L355,733.1" fill="none" stroke="#63756a" stroke-width="1.5"/>
<path d="M355,733.1 A45.900000000000006,45.900000000000006 0 0 1 400.9,779" fill="none" stroke="#63756a" stroke-width="1.2"/>
<path d="M219,439 L264.9,439" fill="none" stroke="#faf8f3" stroke-width="6"/>
<path d="M219,439 L219,393.1" fill="none" stroke="#63756a" stroke-width="1.5"/>
<path d="M219,393.1 A45.900000000000006,45.900000000000006 0 0 1 264.9,439" fill="none" stroke="#63756a" stroke-width="1.2"/>
<path d="M440,439 L485.9,439" fill="none" stroke="#faf8f3" stroke-width="6"/>
<path d="M440,439 L440,393.1" fill="none" stroke="#63756a" stroke-width="1.5"/>
<path d="M440,393.1 A45.900000000000006,45.900000000000006 0 0 1 485.9,439" fill="none" stroke="#63756a" stroke-width="1.2"/>
<path d="M329.5,439 L375.4,439" fill="none" stroke="#faf8f3" stroke-width="6"/>
<path d="M329.5,439 L329.5,393.1" fill="none" stroke="#63756a" stroke-width="1.5"/>
<path d="M329.5,393.1 A45.900000000000006,45.900000000000006 0 0 1 375.4,439" fill="none" stroke="#63756a" stroke-width="1.2"/>
<path d="M304,269 L304,314.9" fill="none" stroke="#faf8f3" stroke-width="6"/>
<path d="M304,269 L258.1,269" fill="none" stroke="#63756a" stroke-width="1.5"/>
<path d="M258.1,269 A45.900000000000006,45.900000000000006 0 0 0 304,314.9" fill="none" stroke="#63756a" stroke-width="1.2"/>
<path d="M474,711 L474,756.9" fill="none" stroke="#faf8f3" stroke-width="6"/>
<path d="M474,711 L428.1,711" fill="none" stroke="#63756a" stroke-width="1.5"/>
<path d="M428.1,711 A45.900000000000006,45.900000000000006 0 0 0 474,756.9" fill="none" stroke="#63756a" stroke-width="1.2"/>
<path d="M485.9,573.6400000000001 L533.5,573.6400000000001" fill="none" stroke="#354740" stroke-width="3"/>
<path d="M550.5,573.6400000000001 L598.1,573.6400000000001" fill="none" stroke="#354740" stroke-width="3"/>
<path d="M485.9,589.28 L533.5,589.28" fill="none" stroke="#354740" stroke-width="3"/>
<path d="M550.5,589.28 L598.1,589.28" fill="none" stroke="#354740" stroke-width="3"/>
<path d="M485.9,604.9200000000001 L533.5,604.9200000000001" fill="none" stroke="#354740" stroke-width="3"/>
<path d="M550.5,604.9200000000001 L598.1,604.9200000000001" fill="none" stroke="#354740" stroke-width="3"/>
<path d="M485.9,620.56 L533.5,620.56" fill="none" stroke="#354740" stroke-width="3"/>
<path d="M550.5,620.56 L598.1,620.56" fill="none" stroke="#354740" stroke-width="3"/>
<path d="M485.9,636.2 L533.5,636.2" fill="none" stroke="#354740" stroke-width="3"/>
<path d="M550.5,636.2 L598.1,636.2" fill="none" stroke="#354740" stroke-width="3"/>
<path d="M485.9,651.8399999999999 L533.5,651.8399999999999" fill="none" stroke="#354740" stroke-width="3"/>
<path d="M550.5,651.8399999999999 L598.1,651.8399999999999" fill="none" stroke="#354740" stroke-width="3"/>
<path d="M485.9,667.48 L533.5,667.48" fill="none" stroke="#354740" stroke-width="3"/>
<path d="M550.5,667.48 L598.1,667.48" fill="none" stroke="#354740" stroke-width="3"/>
<path d="M485.9,683.12 L533.5,683.12" fill="none" stroke="#354740" stroke-width="3"/>
<path d="M550.5,683.12 L598.1,683.12" fill="none" stroke="#354740" stroke-width="3"/>
<path d="M485.9,698.76 L533.5,698.76" fill="none" stroke="#354740" stroke-width="3"/>
<path d="M550.5,698.76 L598.1,698.76" fill="none" stroke="#354740" stroke-width="3"/>
<path d="M485.9,714.4000000000001 L533.5,714.4000000000001" fill="none" stroke="#354740" stroke-width="3"/>
<path d="M550.5,714.4000000000001 L598.1,714.4000000000001" fill="none" stroke="#354740" stroke-width="3"/>
<path d="M536.9,558 L536.9,745" fill="none" stroke="#354740" stroke-width="3"/>
<path d="M547.1,558 L547.1,745" fill="none" stroke="#354740" stroke-width="3"/>
<text x="542" y="541" font-family="Arial, sans-serif" font-size="14" fill="#23352f" text-anchor="middle" font-weight="700">STAIR</text>
<text x="542" y="765.4" font-family="Arial, sans-serif" font-size="12" fill="#23352f" text-anchor="middle" font-weight="400">8 × 16 zone</text>
<path d="M508,719.5 L508,624.5" fill="none" stroke="#63756a" stroke-width="1.5"/>
<path d="M508,624.5 L503,633.5" fill="none" stroke="#63756a" stroke-width="1.5"/>
<path d="M508,624.5 L513,633.5" fill="none" stroke="#63756a" stroke-width="1.5"/>
<path d="M151,235 L236,235" fill="none" stroke="#faf8f3" stroke-width="7"/>
<path d="M151,235 L236,235" fill="none" stroke="#5296a2" stroke-width="3"/>
<path d="M457,235 L559,235" fill="none" stroke="#faf8f3" stroke-width="7"/>
<path d="M457,235 L559,235" fill="none" stroke="#5296a2" stroke-width="3"/>
<path d="M338,235 L372,235" fill="none" stroke="#faf8f3" stroke-width="7"/>
<path d="M338,235 L372,235" fill="none" stroke="#5296a2" stroke-width="3"/>
<path d="M100,286 L100,371" fill="none" stroke="#faf8f3" stroke-width="7"/>
<path d="M100,286 L100,371" fill="none" stroke="#5296a2" stroke-width="3"/>
<path d="M610,286 L610,371" fill="none" stroke="#faf8f3" stroke-width="7"/>
<path d="M610,286 L610,371" fill="none" stroke="#5296a2" stroke-width="3"/>
<path d="M100,558 L100,626" fill="none" stroke="#faf8f3" stroke-width="7"/>
<path d="M100,558 L100,626" fill="none" stroke="#5296a2" stroke-width="3"/>
<path d="M287,779 L338,779" fill="none" stroke="#faf8f3" stroke-width="7"/>
<path d="M287,779 L338,779" fill="none" stroke="#5296a2" stroke-width="3"/>
<path d="M414.5,779 L457,779" fill="none" stroke="#faf8f3" stroke-width="7"/>
<path d="M414.5,779 L457,779" fill="none" stroke="#5296a2" stroke-width="3"/>
<path d="M100,215 L610,215" fill="none" stroke="#8c968e" stroke-width="1"/>
<text x="355" y="208" font-family="Arial, sans-serif" font-size="14" fill="#23352f" text-anchor="middle" font-weight="400">30 ft overall</text>
<text x="57" y="507" font-family="Arial, sans-serif" font-size="14" fill="#23352f" text-anchor="middle" font-weight="400">32 ft</text>
<text x="355" y="810" font-family="Arial, sans-serif" font-size="15" fill="#23352f" text-anchor="middle" font-weight="700">FRONT / ROAD SIDE</text>
<text x="790" y="161" font-family="Arial, sans-serif" font-size="22" fill="#23352f" text-anchor="start" font-weight="700">UPPER FLOOR</text>
<text x="790" y="188" font-family="Arial, sans-serif" font-size="16" fill="#23352f" text-anchor="start" font-weight="400">≈870 sq ft enclosed + 90 sq ft terrace</text>
<rect x="790" y="235" width="204" height="204" fill="#e5eddf"/>
<text x="892.0" y="334.0" font-family="Arial, sans-serif" font-size="15" fill="#23352f" text-anchor="middle" font-weight="700">BEDROOM 1</text>
<text x="892.0" y="355.0" font-family="Arial, sans-serif" font-size="13" fill="#23352f" text-anchor="middle" font-weight="400">12 × 12 ft zone</text>
<rect x="1096" y="235" width="204" height="204" fill="#e5eddf"/>
<text x="1198.0" y="334.0" font-family="Arial, sans-serif" font-size="15" fill="#23352f" text-anchor="middle" font-weight="700">BEDROOM 2</text>
<text x="1198.0" y="355.0" font-family="Arial, sans-serif" font-size="13" fill="#23352f" text-anchor="middle" font-weight="400">12 × 12 ft zone</text>
<rect x="994" y="235" width="102" height="102" fill="#e1edf0"/>
<text x="1045.0" y="283.0" font-family="Arial, sans-serif" font-size="15" fill="#23352f" text-anchor="middle" font-weight="700">ATT. BATH</text>
<text x="1045.0" y="304.0" font-family="Arial, sans-serif" font-size="13" fill="#23352f" text-anchor="middle" font-weight="400">6 × 6 zone</text>
<rect x="994" y="337" width="102" height="102" fill="#e1edf0"/>
<text x="1045.0" y="385.0" font-family="Arial, sans-serif" font-size="15" fill="#23352f" text-anchor="middle" font-weight="700">BATH</text>
<text x="1045.0" y="406.0" font-family="Arial, sans-serif" font-size="13" fill="#23352f" text-anchor="middle" font-weight="400">6 × 6 zone</text>
<rect x="790" y="439" width="510" height="68" fill="#f4f0e8"/>
<text x="1045.0" y="470.0" font-family="Arial, sans-serif" font-size="15" fill="#23352f" text-anchor="middle" font-weight="700">SHARED PASSAGE</text>
<rect x="790" y="507" width="187" height="187" fill="#e5eddf"/>
<text x="883.5" y="597.5" font-family="Arial, sans-serif" font-size="15" fill="#23352f" text-anchor="middle" font-weight="700">BEDROOM 3</text>
<text x="883.5" y="618.5" font-family="Arial, sans-serif" font-size="13" fill="#23352f" text-anchor="middle" font-weight="400">11 × 11 ft zone</text>
<rect x="977" y="507" width="119" height="136" fill="#f3e5ce"/>
<text x="1036.5" y="572.0" font-family="Arial, sans-serif" font-size="15" fill="#23352f" text-anchor="middle" font-weight="700">KITCHEN</text>
<text x="1036.5" y="593.0" font-family="Arial, sans-serif" font-size="13" fill="#23352f" text-anchor="middle" font-weight="400">7 × 8 zone</text>
<rect x="1096" y="507" width="68" height="272" fill="#f4f0e8"/>
<text x="1130.0" y="640.0" font-family="Arial, sans-serif" font-size="15" fill="#23352f" text-anchor="middle" font-weight="700"></text>
<rect x="977" y="643" width="119" height="51" fill="#f4f0e8"/>
<text x="1036.5" y="665.5" font-family="Arial, sans-serif" font-size="15" fill="#23352f" text-anchor="middle" font-weight="700"></text>
<rect x="790" y="694" width="306" height="85" fill="#e2ebd6"/>
<text x="943.0" y="733.5" font-family="Arial, sans-serif" font-size="15" fill="#23352f" text-anchor="middle" font-weight="700">OPEN TERRACE</text>
<text x="943.0" y="754.5" font-family="Arial, sans-serif" font-size="13" fill="#23352f" text-anchor="middle" font-weight="400">18 × 5 ft zone</text>
<rect x="1164" y="507" width="136" height="272" fill="#e9e8e3"/>
<text x="1232.0" y="640.0" font-family="Arial, sans-serif" font-size="15" fill="#23352f" text-anchor="middle" font-weight="700"></text>
<path d="M790,235 L1300,235" fill="none" stroke="#354740" stroke-width="3"/>
<path d="M1300,235 L1300,779" fill="none" stroke="#354740" stroke-width="3"/>
<path d="M1300,779 L790,779" fill="none" stroke="#354740" stroke-width="3"/>
<path d="M790,779 L790,235" fill="none" stroke="#354740" stroke-width="3"/>
<path d="M994,235 L994,439" fill="none" stroke="#354740" stroke-width="3"/>
<path d="M1096,235 L1096,439" fill="none" stroke="#354740" stroke-width="3"/>
<path d="M994,337 L1096,337" fill="none" stroke="#354740" stroke-width="3"/>
<path d="M790,439 L1300,439" fill="none" stroke="#354740" stroke-width="3"/>
<path d="M790,507 L1164,507" fill="none" stroke="#354740" stroke-width="3"/>
<path d="M1164,507 L1164,779" fill="none" stroke="#354740" stroke-width="3"/>
<path d="M977,507 L977,694" fill="none" stroke="#354740" stroke-width="3"/>
<path d="M1096,507 L1096,643" fill="none" stroke="#354740" stroke-width="3"/>
<path d="M977,643 L1096,643" fill="none" stroke="#354740" stroke-width="3"/>
<path d="M790,694 L1096,694" fill="none" stroke="#354740" stroke-width="3"/>
<path d="M1096,694 L1096,779" fill="none" stroke="#354740" stroke-width="3"/>
<path d="M909,507 L954.9,507" fill="none" stroke="#faf8f3" stroke-width="6"/>
<path d="M909,507 L909,461.1" fill="none" stroke="#63756a" stroke-width="1.5"/>
<path d="M909,461.1 A45.900000000000006,45.900000000000006 0 0 1 954.9,507" fill="none" stroke="#63756a" stroke-width="1.2"/>
<path d="M1011,643 L1056.9,643" fill="none" stroke="#faf8f3" stroke-width="6"/>
<path d="M1011,643 L1011,597.1" fill="none" stroke="#63756a" stroke-width="1.5"/>
<path d="M1011,597.1 A45.900000000000006,45.900000000000006 0 0 1 1056.9,643" fill="none" stroke="#63756a" stroke-width="1.2"/>
<path d="M1028,694 L1073.9,694" fill="none" stroke="#faf8f3" stroke-width="6"/>
<path d="M1028,694 L1028,648.1" fill="none" stroke="#63756a" stroke-width="1.5"/>
<path d="M1028,648.1 A45.900000000000006,45.900000000000006 0 0 1 1073.9,694" fill="none" stroke="#63756a" stroke-width="1.2"/>
<path d="M1106.2,507 L1152.1000000000001,507" fill="none" stroke="#faf8f3" stroke-width="6"/>
<path d="M1106.2,507 L1106.2,461.1" fill="none" stroke="#63756a" stroke-width="1.5"/>
<path d="M1106.2,461.1 A45.900000000000006,45.900000000000006 0 0 1 1152.1000000000001,507" fill="none" stroke="#63756a" stroke-width="1.2"/>
<path d="M909,439 L954.9,439" fill="none" stroke="#faf8f3" stroke-width="6"/>
<path d="M909,439 L909,393.1" fill="none" stroke="#63756a" stroke-width="1.5"/>
<path d="M909,393.1 A45.900000000000006,45.900000000000006 0 0 1 954.9,439" fill="none" stroke="#63756a" stroke-width="1.2"/>
<path d="M1130,439 L1175.9,439" fill="none" stroke="#faf8f3" stroke-width="6"/>
<path d="M1130,439 L1130,393.1" fill="none" stroke="#63756a" stroke-width="1.5"/>
<path d="M1130,393.1 A45.900000000000006,45.900000000000006 0 0 1 1175.9,439" fill="none" stroke="#63756a" stroke-width="1.2"/>
<path d="M1019.5,439 L1065.4,439" fill="none" stroke="#faf8f3" stroke-width="6"/>
<path d="M1019.5,439 L1019.5,393.1" fill="none" stroke="#63756a" stroke-width="1.5"/>
<path d="M1019.5,393.1 A45.900000000000006,45.900000000000006 0 0 1 1065.4,439" fill="none" stroke="#63756a" stroke-width="1.2"/>
<path d="M994,269 L994,314.9" fill="none" stroke="#faf8f3" stroke-width="6"/>
<path d="M994,269 L948.1,269" fill="none" stroke="#63756a" stroke-width="1.5"/>
<path d="M948.1,269 A45.900000000000006,45.900000000000006 0 0 0 994,314.9" fill="none" stroke="#63756a" stroke-width="1.2"/>
<path d="M1164,711 L1164,756.9" fill="none" stroke="#faf8f3" stroke-width="6"/>
<path d="M1164,711 L1118.1,711" fill="none" stroke="#63756a" stroke-width="1.5"/>
<path d="M1118.1,711 A45.900000000000006,45.900000000000006 0 0 0 1164,756.9" fill="none" stroke="#63756a" stroke-width="1.2"/>
<path d="M1175.9,573.6400000000001 L1223.5,573.6400000000001" fill="none" stroke="#354740" stroke-width="3"/>
<path d="M1240.5,573.6400000000001 L1288.1,573.6400000000001" fill="none" stroke="#354740" stroke-width="3"/>
<path d="M1175.9,589.28 L1223.5,589.28" fill="none" stroke="#354740" stroke-width="3"/>
<path d="M1240.5,589.28 L1288.1,589.28" fill="none" stroke="#354740" stroke-width="3"/>
<path d="M1175.9,604.9200000000001 L1223.5,604.9200000000001" fill="none" stroke="#354740" stroke-width="3"/>
<path d="M1240.5,604.9200000000001 L1288.1,604.9200000000001" fill="none" stroke="#354740" stroke-width="3"/>
<path d="M1175.9,620.56 L1223.5,620.56" fill="none" stroke="#354740" stroke-width="3"/>
<path d="M1240.5,620.56 L1288.1,620.56" fill="none" stroke="#354740" stroke-width="3"/>
<path d="M1175.9,636.2 L1223.5,636.2" fill="none" stroke="#354740" stroke-width="3"/>
<path d="M1240.5,636.2 L1288.1,636.2" fill="none" stroke="#354740" stroke-width="3"/>
<path d="M1175.9,651.8399999999999 L1223.5,651.8399999999999" fill="none" stroke="#354740" stroke-width="3"/>
<path d="M1240.5,651.8399999999999 L1288.1,651.8399999999999" fill="none" stroke="#354740" stroke-width="3"/>
<path d="M1175.9,667.48 L1223.5,667.48" fill="none" stroke="#354740" stroke-width="3"/>
<path d="M1240.5,667.48 L1288.1,667.48" fill="none" stroke="#354740" stroke-width="3"/>
<path d="M1175.9,683.12 L1223.5,683.12" fill="none" stroke="#354740" stroke-width="3"/>
<path d="M1240.5,683.12 L1288.1,683.12" fill="none" stroke="#354740" stroke-width="3"/>
<path d="M1175.9,698.76 L1223.5,698.76" fill="none" stroke="#354740" stroke-width="3"/>
<path d="M1240.5,698.76 L1288.1,698.76" fill="none" stroke="#354740" stroke-width="3"/>
<path d="M1175.9,714.4000000000001 L1223.5,714.4000000000001" fill="none" stroke="#354740" stroke-width="3"/>
<path d="M1240.5,714.4000000000001 L1288.1,714.4000000000001" fill="none" stroke="#354740" stroke-width="3"/>
<path d="M1226.9,558 L1226.9,745" fill="none" stroke="#354740" stroke-width="3"/>
<path d="M1237.1,558 L1237.1,745" fill="none" stroke="#354740" stroke-width="3"/>
<text x="1232" y="541" font-family="Arial, sans-serif" font-size="14" fill="#23352f" text-anchor="middle" font-weight="700">STAIR</text>
<text x="1232" y="765.4" font-family="Arial, sans-serif" font-size="12" fill="#23352f" text-anchor="middle" font-weight="400">8 × 16 zone</text>
<path d="M1198,719.5 L1198,624.5" fill="none" stroke="#63756a" stroke-width="1.5"/>
<path d="M1198,624.5 L1193,633.5" fill="none" stroke="#63756a" stroke-width="1.5"/>
<path d="M1198,624.5 L1203,633.5" fill="none" stroke="#63756a" stroke-width="1.5"/>
<path d="M841,235 L926,235" fill="none" stroke="#faf8f3" stroke-width="7"/>
<path d="M841,235 L926,235" fill="none" stroke="#5296a2" stroke-width="3"/>
<path d="M1147,235 L1249,235" fill="none" stroke="#faf8f3" stroke-width="7"/>
<path d="M1147,235 L1249,235" fill="none" stroke="#5296a2" stroke-width="3"/>
<path d="M1028,235 L1062,235" fill="none" stroke="#faf8f3" stroke-width="7"/>
<path d="M1028,235 L1062,235" fill="none" stroke="#5296a2" stroke-width="3"/>
<path d="M790,286 L790,371" fill="none" stroke="#faf8f3" stroke-width="7"/>
<path d="M790,286 L790,371" fill="none" stroke="#5296a2" stroke-width="3"/>
<path d="M1300,286 L1300,371" fill="none" stroke="#faf8f3" stroke-width="7"/>
<path d="M1300,286 L1300,371" fill="none" stroke="#5296a2" stroke-width="3"/>
<path d="M790,558 L790,626" fill="none" stroke="#faf8f3" stroke-width="7"/>
<path d="M790,558 L790,626" fill="none" stroke="#5296a2" stroke-width="3"/>
<path d="M790,215 L1300,215" fill="none" stroke="#8c968e" stroke-width="1"/>
<text x="1045" y="208" font-family="Arial, sans-serif" font-size="14" fill="#23352f" text-anchor="middle" font-weight="400">30 ft overall</text>
<text x="747" y="507" font-family="Arial, sans-serif" font-size="14" fill="#23352f" text-anchor="middle" font-weight="400">32 ft</text>
<text x="1045" y="810" font-family="Arial, sans-serif" font-size="15" fill="#23352f" text-anchor="middle" font-weight="700">FRONT / ROAD SIDE</text>
<text x="65" y="853" font-family="Arial, sans-serif" font-size="17" fill="#23352f" text-anchor="start" font-weight="700">READING THE PLAN</text>
<text x="65" y="883" font-family="Arial, sans-serif" font-size="16" fill="#23352f" text-anchor="start" font-weight="400">Dimensions label planning zones, not clear finished room sizes. Wall thickness reduces usable room area.</text>
<text x="65" y="910" font-family="Arial, sans-serif" font-size="16" fill="#23352f" text-anchor="start" font-weight="400">Blue marks = windows. Curves = indicative door swings. Stair geometry and openings require detailed design.</text>
<text x="65" y="937" font-family="Arial, sans-serif" font-size="16" fill="#23352f" text-anchor="start" font-weight="400">Approx. 1,830 sq ft enclosed/covered across both floors; terrace finishing is additional. Porch and parking are outside this drawing.</text>
<text x="65" y="973" font-family="Arial, sans-serif" font-size="16" fill="#826444" text-anchor="start" font-weight="400">For architect discussion only — not for construction, approval, structural sizing, or a fixed-price contract.</text>
</svg>